HIERARCHY
ROOT Hips
{
	OFFSET -3.958830 18.904000 13.208200
	CHANNELS 6 Xposition Yposition Zposition Zrotation Yrotation Xrotation 
	JOINT LHipJoint
	{
		OFFSET 0.000000 0.000000 0.000000
		CHANNELS 3 Zrotation Yrotation Xrotation
		JOINT LeftUpLeg
		{
			OFFSET 1.800000 -1.400000 0.085000
			CHANNELS 3 Zrotation Yrotation Xrotation
			JOINT LeftLeg
			{
				OFFSET 2.215000 -6.000000 0.000000
				CHANNELS 3 Zrotation Yrotation Xrotation
				JOINT LeftFoot
				{
					OFFSET 2.500000 -6.900000 0.000000
					CHANNELS 3 Zrotation Yrotation Xrotation
					JOINT LeftToeBase
					{
						OFFSET 0.200000 -0.500000 1.950000
						CHANNELS 3 Zrotation Yrotation Xrotation
						End Site
						{
							OFFSET 0.000000 0.000000 0.000000
						}
					}
				}
			}
		}
	}
	JOINT RHipJoint
	{
		OFFSET 0.000000 0.000000 0.000000
		CHANNELS 3 Zrotation Yrotation Xrotation
		JOINT RightUpLeg
		{
			OFFSET -1.800000 -1.400000 0.085000
			CHANNELS 3 Zrotation Yrotation Xrotation
			JOINT RightLeg
			{
				OFFSET -2.215000 -6.000000 0.000000
				CHANNELS 3 Zrotation Yrotation Xrotation
				JOINT RightFoot
				{
					OFFSET -2.500000 -6.900000 0.000000
					CHANNELS 3 Zrotation Yrotation Xrotation
					JOINT RightToeBase
					{
						OFFSET -0.200000 -0.500000 1.950000
						CHANNELS 3 Zrotation Yrotation Xrotation
						End Site
						{
							OFFSET 0.000000 0.000000 0.000000
						}
					}
				}
			}
		}
	}
	JOINT LowerBack
	{
		OFFSET 0.000000 0.000000 0.000000
		CHANNELS 3 Zrotation Yrotation Xrotation
		JOINT Spine
		{
			OFFSET -0.087000 1.940000 -0.288900
			CHANNELS 3 Zrotation Yrotation Xrotation
			JOINT Spine1
			{
				OFFSET 0.000000 1.950000 0.060000
				CHANNELS 3 Zrotation Yrotation Xrotation
				JOINT Neck
				{
					OFFSET 0.000000 0.000000 0.000000
					CHANNELS 3 Zrotation Yrotation Xrotation
					JOINT Neck1
					{
						OFFSET 0.000000 1.600000 0.340000
						CHANNELS 3 Zrotation Yrotation Xrotation
						JOINT Head
						{
							OFFSET 0.000000 1.667000 -0.240000
							CHANNELS 3 Zrotation Yrotation Xrotation
							End Site
							{
								OFFSET 0.000000 0.000000 0.000000
							}
						}
					}
				}
				JOINT LeftShoulder
				{
					OFFSET 0.000000 0.000000 0.000000
					CHANNELS 3 Zrotation Yrotation Xrotation
					JOINT LeftArm
					{
						OFFSET 2.700000 1.550000 -0.730000
						CHANNELS 3 Zrotation Yrotation Xrotation
						JOINT LeftForeArm
						{
							OFFSET 5.450000 0.000000 0.000000
							CHANNELS 3 Zrotation Yrotation Xrotation
							JOINT LeftHand
							{
								OFFSET 3.450000 0.000000 0.000000
								CHANNELS 3 Zrotation Yrotation Xrotation
								JOINT LeftHandIndex1
								{
									OFFSET 0.750000 0.000000 0.000000
									CHANNELS 3 Zrotation Yrotation Xrotation
									End Site
									{
										OFFSET 0.000000 0.000000 0.000000
									}
								}
							}
						}
					}
				}
				JOINT RightShoulder
				{
					OFFSET 0.000000 0.000000 0.000000
					CHANNELS 3 Zrotation Yrotation Xrotation
					JOINT RightArm
					{
						OFFSET -2.700000 1.550000 -0.730000
						CHANNELS 3 Zrotation Yrotation Xrotation
						JOINT RightForeArm
						{
							OFFSET -5.450000 0.000000 0.000000
							CHANNELS 3 Zrotation Yrotation Xrotation
							JOINT RightHand
							{
								OFFSET -3.450000 0.000000 0.000000
								CHANNELS 3 Zrotation Yrotation Xrotation
								JOINT RightHandIndex1
								{
									OFFSET -0.750000 0.000000 0.000000
									CHANNELS 3 Zrotation Yrotation Xrotation
									End Site
									{
										OFFSET 0.000000 0.000000 0.000000
									}
								}
							}
						}
					}
				}
			}
		}
	}
}
MOTION
Frames: 7
Frame Time: 0.016667
0.977340 17.902020 0.235930 -3.905523 -5.128401 -10.303336 -15.146940 12.402617 2.181700 0.427136 0.612953 -0.088797 -7.072903 6.541315 13.074468 -0.513352 4.839322 2.943098 0.084810 -0.079540 0.095950 18.791877 -7.785403 6.314585 -1.715869 17.366794 -61.173325 1.033385 -12.462365 73.136555 -1.767747 -11.142216 0.619400 0.080000 0.247150 0.027930 -4.333802 -3.188445 -8.934227 18.368583 -9.207922 25.692361 -5.311945 -5.031593 3.005020 1.321472 -5.341020 -7.784566 -15.707408 7.616705 47.636975 -7.715420 4.998950 -9.002400 -28.770844 -13.012092 0.585012 -27.296626 -16.040952 -4.621254 -4.620257 -44.762933 0.821808 -3.789969 2.724048 0.572930 0.110840 -0.053600 -0.021870 25.800596 13.775462 4.934271 45.966392 9.389443 -6.621844 11.970537 28.264351 1.091632 2.074663 -1.013070 -0.393040 0.422510 0.290550 -0.254840 
0.980080 17.908390 0.232660 -3.872473 -5.473817 -10.507011 -15.152450 12.393802 2.181650 0.440287 0.648216 0.083980 -7.160950 6.576590 13.053089 -0.508958 4.854485 2.935892 0.091850 -0.070330 0.101210 18.791089 -7.751817 6.348717 -1.727637 17.634062 -61.299842 1.059578 -12.493385 73.475613 -1.789658 -11.191001 0.608362 0.083770 0.239100 0.023090 -4.326151 -3.204025 -8.949913 18.396718 -9.176689 26.099144 -5.248124 -4.934761 3.035246 1.290813 -5.494468 -7.893495 -16.161298 7.784990 47.869022 -7.690970 4.920180 -9.308090 -28.747345 -13.161105 0.623299 -27.108889 -15.996051 -4.742530 -4.331288 -45.136736 0.709648 -3.777528 2.717292 0.580700 0.101100 -0.046180 -0.021510 25.841391 14.081624 5.049850 45.712246 9.439864 -6.683806 11.811343 28.410817 1.080981 2.071623 -1.007537 -0.392170 0.428480 0.287530 -0.255790 
0.984650 17.919420 0.227090 -3.812942 -6.123576 -10.879250 -15.162990 12.377205 2.184434 0.507709 0.712006 0.418331 -7.399929 6.653043 12.959368 -0.500520 4.887356 2.919984 0.105360 -0.051830 0.107070 18.788855 -7.691450 6.407653 -1.666420 18.143307 -61.455541 1.045910 -12.478983 74.027271 -1.825196 -11.261399 0.594459 0.092380 0.224910 0.015650 -4.310998 -3.231375 -8.978544 18.435640 -9.105919 26.861381 -5.139783 -4.745612 3.085236 1.237719 -5.752141 -8.099847 -16.938420 8.111049 48.252015 -7.559860 4.787770 -9.860030 -28.721791 -13.447295 0.700340 -26.721355 -15.864336 -4.998827 -3.762738 -45.942716 0.483249 -3.753032 2.708514 0.595710 0.084210 -0.032480 -0.018820 25.928320 14.636259 5.279313 45.235057 9.455813 -6.853062 11.544833 28.813198 1.071759 2.062886 -1.001248 -0.390760 0.437160 0.281330 -0.256590 
0.989300 17.932780 0.220580 -3.732244 -6.966554 -11.359168 -15.176813 12.351381 2.187464 0.618225 0.787867 0.832271 -7.758055 6.761349 12.817536 -0.489708 4.933048 2.897623 0.121500 -0.031190 0.119780 18.786423 -7.613350 6.484075 -1.550614 18.839174 -61.620979 1.009107 -12.458677 74.799714 -1.873470 -11.360256 0.569895 0.101170 0.204820 0.006660 -4.293273 -3.258438 -9.015414 18.472217 -9.008104 27.840123 -5.024240 -4.501750 3.172538 1.181510 -6.042111 -8.343500 -17.837444 8.487195 48.719379 -7.476870 4.656630 -10.588950 -28.656274 -13.801571 0.784706 -26.090804 -15.683453 -5.307551 -3.208203 -46.964642 0.262085 -3.724085 2.699378 0.614580 0.061700 -0.015340 -0.020330 25.985698 15.310165 5.546346 44.681776 9.546621 -7.024012 11.239432 29.257772 1.059975 2.055650 -0.992691 -0.388620 0.446370 0.275050 -0.259760 
0.991320 17.946250 0.214040 -3.619350 -7.900904 -11.864715 -15.192034 12.316702 2.189095 0.759286 0.862099 1.231938 -8.223506 6.892292 12.643211 -0.474034 4.984609 2.872639 0.138750 -0.009270 0.132470 18.784913 -7.525640 6.569682 -1.449202 19.644930 -61.790983 0.998240 -12.476797 75.733563 -1.930143 -11.490487 0.537294 0.109550 0.184510 -0.001150 -4.277711 -3.279809 -9.054741 18.492513 -8.880204 28.906026 -4.900562 -4.230413 3.243333 1.083590 -6.380129 -8.578465 -18.851408 8.890003 49.062593 -7.369710 4.491570 -11.307900 -28.595208 -14.134853 0.849249 -25.216196 -15.424361 -5.639090 -2.767452 -48.220961 0.094829 -3.695286 2.697477 0.630160 0.039270 0.000830 -0.022020 26.128366 16.001444 5.816540 44.080481 9.655092 -7.202942 10.797486 29.725040 1.020481 2.048544 -0.987313 -0.383300 0.452970 0.268380 -0.261480 
0.993020 17.960430 0.206720 -3.522449 -9.054550 -12.317817 -15.205031 12.263617 2.183279 0.940022 0.925780 1.537722 -8.775807 7.026053 12.397241 -0.456802 5.030585 2.851085 0.156300 0.014170 0.141850 18.789637 -7.426845 6.674365 -1.275770 20.675780 -61.954635 0.996611 -12.504050 76.833360 -1.995558 -11.647326 0.500133 0.120250 0.166680 -0.009640 -4.280304 -3.273459 -9.092668 18.659078 -8.738787 29.989397 -4.821251 -3.899328 3.324671 0.944979 -6.819718 -8.835286 -20.096137 9.366177 49.235481 -7.138000 4.239710 -11.996160 -28.495597 -14.450661 0.927607 -24.295887 -15.043716 -6.024569 -2.141959 -49.747928 -0.172298 -3.665152 2.695581 0.642760 0.017250 0.016140 -0.020690 26.300191 16.763956 6.099800 43.448816 9.853551 -7.342420 10.131974 30.070663 0.928361 2.042464 -0.982789 -0.377880 0.461070 0.259950 -0.260060 
0.995770 17.976430 0.197950 -3.353711 -10.329321 -12.820773 -15.219108 12.213684 2.181394 1.066829 0.995335 1.777753 -9.338311 7.159793 12.172791 -0.440290 5.071677 2.830279 0.175520 0.039200 0.148980 18.791683 -7.335653 6.772097 -1.061269 21.742575 -61.879328 0.941855 -12.498521 77.997204 -2.063802 -11.808982 0.465437 0.131110 0.149740 -0.018640 -4.281384 -3.261620 -9.128343 18.788935 -8.550494 31.216996 -4.764161 -3.520345 3.370026 0.794529 -7.279491 -9.120023 -21.422192 9.909130 49.356174 -6.791640 3.966730 -12.690180 -28.487981 -14.828416 1.010277 -23.155958 -14.534703 -6.461990 -1.561545 -51.429413 -0.441733 -3.633836 2.699236 0.655270 -0.005080 0.029850 -0.017790 26.589899 17.614623 6.425429 42.687519 10.035380 -7.495593 9.391793 30.360281 0.815202 2.033513 -0.980039 -0.371450 0.468980 0.251920 -0.258000 
